<?xml version="1.0" encoding="UTF-8"?>
<svg id="Camada_2" xmlns="http://www.w3.org/2000/svg" version="1.1" viewBox="0 0 150 150">
  <!-- Generator: Adobe Illustrator 29.3.1, SVG Export Plug-In . SVG Version: 2.1.0 Build 151)  -->
  <defs>
    <style>
      .st0 {
        fill: #ddd5ce;
      }

      .st1 {
        fill: #e4dcd4;
      }

      .st2 {
        fill: #d9d2ca;
      }

      .st3 {
        fill: #e3dcd4;
      }

      .st4 {
        fill: #d9d1c9;
      }

      .st5 {
        fill: #dbd4cc;
      }

      .st6 {
        fill: #e3dbd4;
      }

      .st7 {
        fill: #ddd5cd;
      }

      .st8 {
        fill: #dad2cb;
      }

      .st9 {
        fill: #dcd5cd;
      }

      .st10 {
        fill: #dbd3cc;
      }

      .st11 {
        fill: #dcd4cd;
      }

      .st12 {
        fill: #dbd3cb;
      }

      .st13 {
        fill: #dad2ca;
      }

      .st14 {
        fill: #fefefe;
      }

      .st15 {
        fill: #dad3cb;
      }

      .st16 {
        fill: #d9d1ca;
      }

      .st17 {
        fill: #e3dbd3;
      }

      .st18 {
        fill: #dcd4cc;
      }

      .st19 {
        fill: #e2dad2;
      }
    </style>
  </defs>
  <path class="st1" d="M-172.1-411.4l.6.9c-1.8,2.8,3.2,2.9,1.4,0l.6-1h8l.5.5c-2.1,6.8,7.4,6.4,5-.5h11.5c1.5,2.5-2.6,5.3-5,6.3-.6,2.6-2.2,4.1-4.7,4.5,0,3.1-1.1,4.6-3.4,4.5-9.6,4.2,13.2,10.1,15.9,10.1,5.4,3,8.9-.8,5.2-5.4.7-3.1.8-3.6-1.3-5.9.7-2.2.2-3.9-1.4-5.1.4-3.1-.7-5.1-2.4-7.8l.5-1.2h5.5c-.5,3,2.6,3.8,2.5.4l.5-.4h30c-.1,3.8,4.7,4.5,4.4.3l.6-.3h25l.6,1c-2.6,5.3,5.9,4.9,2.9,0l.5-1.1h10c.6.8,1.3,1.5,2,2.1.7-.6,1.4-1.3,2-2.1H29.1l.5.2c1.1,4.4,3.9,3.3,5-.2h9.5l.6.5c.3,3.9.8,7,5.3,7.9s8-3.7,8.5-8.4h8l3.2,2.4,3.3-2.4h11.5v.6c-2.9,1.3-2.4,2.7,1.3,4.2,0,3.8,1.3,4.2,4.3,1.3,4.2.5,5.3-.3,3.2-2.6-.7-1.4,0-3.2,1.6-3.4h5.5c.5,2,1.7,3.9,2.1.6l.9-.6h8.5l.5.6c-2.6,4-.7,3.9,5.7-.1l1.8-.4h5.5c1.8,1,3.2,1,5,0h23c3.4.2,3.6,2.8,3.8,5.6,1.3-2.7,3.8-3.2,6.7-2.9-1.2-.5-2.7-1.4-2.5-2.7h34.5v3l-1,.6c-2.7-1.8-2.7,2.7,0,.9l1,.6v7.5c-4.9,3.1-3,6,0,9.5v5.5c-.8,1.5-.9,2.3,0,3.5v9c-.6.8-1.3,1.6-2,2.5.8.9,1.5,1.7,2,2.5v76.4l-1,.6c-3.2-1.7-3.1,3,0,1.3l1,.6v70.9l-2,4.6c-.9,3-.8,5.9,2,7.4v16.5l-.5,1.7c.5,3.3-.7,5.3-3.7,5.9,2.9-.1,3.9.3,4.2,3.4v21.5l-.4.6c-4.9-.5-4.7,5.6,0,5.2l.3.7v4c-1.3,2.4-1.3,3.6,0,6v7.5c-.5.6-1.2,1.2-2,1.7.8.6,1.5,1.2,2,1.8v22c-1.1,1.3-1.1,2.6,0,4V43.8l-.4.6c-1.9-.4-3.5.6-4.7,3.3-12.1,1,.2,10.9,5.1,5.2v10c-.8.9-.8,1.7,0,2.5v24c-.3.5-.3.9,0,1v17.5c-.8,1.7-.8,3.8,0,5.5v1l-.5,1.4c-5,5.2-3.7,12,.5,17.1v23c-1.1,1.5-.9,2.4,0,4v9.5c-1,1.8-1,3.2,0,5v38c-4.3.9-5.2,5-.3,5.8l.3.7v7.5l-.4.4c-1.6-2.5-2.4,2.9-2.2,3.4,1.3.1,2.2.5,2.6,1.2v29l-.3.5c-5.7.9-4.3,6.1.3,7.5v7.5l-1,.5c-3.9-2.6-4.3,4.4,0,1.9l1,.6v7.5c-2.8.4-5.7.4-8.5,0-1.1-.6-2.1-1.3-3.2-1.9-1.1.5-2.2,1.2-3.3,1.9-2.8.4-5.7.4-8.5,0-.6-.3-1.2-.8-1.7-1.5l-2.8,1.5c-5.2.4-10.3.4-15.5,0-1.7-2.6-2.7-2.7-3-.5l-1,.5c-4.8.4-9.7.4-14.5,0-.3-.2-.7-.2-1,0-3.7.4-7.3.4-11,0-2.1-1.3-6.1-1.2-8.5,0-2.5.4-5,.4-7.5,0l-.4-.8c2.5-5.5,2.4-10.9-4.4-12.4-7.6-1.7-11.8,5.1-8.2,11.8l-.5,1.4c-3.2.4-6.3.4-9.5,0l-1-.5c0-1.7-1.7-6.8-2.8-7.4s-5.2,3.3-2.9,4.9c.3,1.5.2,2.5-.3,3-1.8.4-3.7.4-5.5,0-.3-.3-.6-.7-.5-1.1.6-3.9-2.9-2.7-1.8.2l-.7.9c-10.8.4-21.6.4-32.5,0l.3-.8c10.1-2.4,5.1-14.4,2-20.6s-8.9-8.6-14.9-6.4c1,2.4.4,4.2-1.5,6,.3,2.5-.9,3.9-3.6,4.4,0,5.6.8,11.2,2.2,16.8l-.5.6c-13.5.4-27,.4-40.4,0v-.8c3.6-.8,7-1.9,10.3-3.2,1-.5,1.6-1.3,1.9-2.4.4-1.8-3.6-21.9-4.9-23s-.7-.5-1-.5c-2.4-.6-17.9,3.3-21,4.2-5.8.8-5.8,2.4-5.2,7.7-3.8-.3-4.1,2.3-3.4,5.5l2.7,12-.4.4c-.7.4-1.3.4-2,0-1.9-1.2-2.6-1.2-4.5,0-2.8.4-5.7.4-8.5,0-.8-.5-1.2-.5-2,0-3,.4-6,.4-9,0l-.4-.6c8.2-22.3-27.9-23.1-19.8,0l-.3.7c-5.2.4-10.3.4-15.5,0l-.5-.7c5.4-12.9-13.3-10.5-4.3-.3l-.2.9c-5.3.4-10.7.4-16,0-.3-2.3-1.2-5.3-3.8-2.7-.1,1.1-.4,2-.7,2.7-3,.4-6,.4-9,0-.8-.7-1.1-.6-2,0-1.2.4-2.3.4-3.5,0-1.6-1-2.3-1.1-4,0-4.5.4-9,.4-13.5,0-1.4-1.2-2.7-1.2-4,0-6.1.3-12.1.4-18.2.3-.2-3.6-.1-7.2.2-10.7l.8-.7c5.5,1.6,4.8-6.7-.2-4l-.5-.3c-.4-5-.4-10,0-15,1.9-2.4,4.1,1,4.7,3.1,1.6-2.6,2.8-3.2,5.8-3.2-1.4-1.4-1.8-3.3-1.2-5.9-2,1.4-4,.9-6.2-1.4l-.3,1c.9,2.3-.8,5.6-3,3.9-.4-5.7-.4-11.3,0-17h1.1c2.4,5.3,15.8-1.9,12-5.7-3.9-4-10.4-2-11.1,3.6-.4,1.1-.9,1.7-2.1,1.1-.4-4.7-.4-9.3,0-14l.9-.6c2.7,1.6,2.7-2.5,0-.8l-1-.6c-.4-3.5-.4-7,0-10.5,1.1-1.2,1.7.1,2.2,1.3,1.4,7.4,4,4.2,1.7-1.3,0-.5.2-.9.6-1.2,1-1,16.4,2.1,18.2,3.1,4.5-1,1.3-21.9-4.9-21.8-2.6,2.9-12.2,10.4-15.8,10.7s-2.3-.2-2-.9c-.4-2-.4-4,0-6l.4-.5c3.5-.2,13-3.7,10.8-8.4s-6.3-4.3-7.3-4.4-2.2.4-3.1,1.2l-.9-.4c-.4-8.3-.4-16.7,0-25,4.2-2,3.8-4.4,0-6.5-.4-4.2-.4-8.3,0-12.5,5.3-.9,9.9-2.2,12.3-7.8,3.7-8.6-2.5-16.9-11.7-17.2,0-1.1-.2-2.1-.6-3-.4-8.3-.4-16.7,0-25,.9.3,1.9.8,2.9,1.5l1.4-2.5c2.9-.8,3-2.3.3-4.2-.2-1.4-.5-2.4-.9-3.2-1.5,1.5-2.7,1.9-3.8,1.4-.4-2-.4-4,0-6,.3-1.9.7-2,2.4-1.3,3.6,2.3,4.9,1.4,4-2.6,1.7-3.8,2.3-6.4-.3-9.9.6-3,0-4-2.1-3-.4,1.8-3.1,2.9-4,1.4-.4-3.3-.4-6.7,0-10,2.6,2,6.6,2.7,4.8-1.9s-1.7-4.2-2.2-2.7c-.6,2.1-1.4,3.1-2.6,3.1-.4-6.3-.4-12.7,0-19l.4-1.2c3.6-.2,6.6-1,9.2-2.3-.9-7.4-2.2-14.8-3.8-22.3-.8-1.9-2.6-2.9-4.5-3.4-.2-1.5-.6-2.8-1.2-3.8-.4-1.6-.4-3.9,0-5.5,2.5-.8,5-1.6,7.2-3.7l1.6.2c3.7,4.2,3.1,2.2,0-.7v-1.1c4-4.4,7-10.2-1.2-11.3l-6.6-.2c-.7,0-1-.2-1-.7-.4-2.4-.4-5.5,0-8l1.1.2c3.4,7.5,20.3,2.1,26.3,0s16.4-7.3,8.1-12.1-8.4.3-9.2,6.1c-2.4,2.2-3.6-.5-2.5-3l1.6-4.2c-1.8.1-4.2.7-4.8,2.7-.6,7.1-5.7,8.3-2.9,0,.3-2-5,.6-4.8,2.2-.6,6.9-5.2,7.3-3-.4-3.1,0-6.7,2.3-8.5,5.2l-1.3.2c-.4-3.3-.4-7.2,0-10.5,0-.9.5-1.4,1.8-1.3-1,0-1.6-.4-1.8-1.2-.4-7.8-.4-16.6,0-24.5,1.8-2,2.5-7.3,0-8.5-.4-8-.4-16.9,0-25,.8-1.3,2-2.4,3.6-1.9,3.5,2.2,4.7-.2,4.7-3.6,3.8-1.6,3.9-4.4,0-5.7.2-3.6-1-5.9-4.7-3.5-1.5.6-2.8-.6-3.5-1.8-.4-8.1-.4-17.2,0-25.5l.3-.6c3.2,0,13.3-6.1,13.7-9,.9-6.9-10.6.4-12.4,2.1l-.6-.5c-.3,1-.7,1-1,0-.4-1.6-.4-3.9,0-5.5l1-.6c3.5,2.1,3.5-3.9,0-1.9l-1-.6c-.4-5.2-.4-11.2,0-16.5.5-.6,1.2-1.2,2-1.7-.8-.6-1.5-1.2-2-1.8-.4-4.4-.4-9.5,0-14l.4-.9,8.3-1.9c11.1-1.3,0-13.1-6.1-11.6-1,2.2-1.9,2.9-2.7,2.3-.4-.5-.4-2.2,0-3,3.5-4,3.6-8,0-12-.4-1.2-.4-3.2,0-4.5l2.1-2.1-2.1-2.4c-.4-4.1-.4-8.8,0-13,0-.6,2.6-.5,2.5-.4-.2.2-2.6.2-2.5-.6-.4-8.1-.4-17.2,0-25.5h.7c.5,3.9,1.3,7.7,2.6,11.4,1.4,3.1,4.6,3.2,7.3,3,1.3,4.9,4.3,6.6,9.3,6.2.9.1,1.5.4,1.6,1.3-.2,3.3-.2,8,3,9.9,5.6,3.5,10.5,0,14.7-3.6,7.5,2.3,16-6.6,5.2-9.9-.4-4.3-1.5-10.8-6.9-11.2.6-2.6,1.2-5.3,1.7-8,3-2.5,3.8,1.8,2.6,4.4,1.4,3.7,3.8,6.8,7.2,9.3.7,3,4.7,4.4,6.8,1.9,4.6,1.5,9.6-.3,12.5-4.1,5.5-3.3,6.5-14.2,1.3-18.1-.7-2.7-2.6-7.1-6-5.2-1.4,0-4.3-.5-4.4-1.6-3.4-.8-6.1-.2-9.2,1.3-1.4,1-15.2-1-15.8-1.7-.9-1,0-2.5.8-3.3,8.6-19.1-16.8-33-27.8-14.8-.7,3.9-3.1,5.7-6.9,5.1-.4-2.8-.4-5.7,0-8.5.5-2.4,1.3-3.6,3.7-4.5-1.1-1.4-1.7-3-1.9-4.6-.3,1.1-.6,1.7-1.8,1.2-.4-2.5-.4-5,0-7.5,2.5-.9,2.6-1.7.2-2.4l-.2-.6c-.4-7.5-.4-15,0-22.5.3-.6.6-.6,1.1-.3,2.2,3.1,2.4,2.8,3.7-.5,3.3-.5,3.7-1.8,1.3-4,0-2.7,0-3.3-2.8-2-1.3.3-3,.2-3.3-1.3-.4-3-.4-6,0-9,3.2-.6,2.3-3.7,0-5-.4-2.3-.4-4.7,0-7l.2-.5c7.7.5,19.4-5.5,8-11.8-.7-3.9-4.3-4.9-7.6-3.3l-.6-.4c-.4-2.2-.4-5.2,0-7.5h11.5Z"/>
  <path class="st14" d="M-183.6-403.9c1,.4.7.8,0,1.5,1.4,4.5,1.4,9,0,13.5,1,.3,1,.7,0,1,0,2.3,0,4.7,0,7,1,1.6,1,3.3,0,5,0,3,0,6,0,9,.7.7,1,1.1,0,1.5,1,1.8,1,3.7,0,5.5,1,.3,1,.7,0,1,0,7.5,0,15,0,22.5,1,1,1,2,0,3,0,2.5,0,5,0,7.5.8,0,.8.6,0,1.5,1,1.3.8,2.6,0,4,.8.6.8,1.4,0,2.5,0,2.8,0,5.7,0,8.5,1,.3,1,.7,0,1,1,.8,1,1.7,0,2.5,1,.8,1,1.7,0,2.5,1.4,2.3,1.4,5.2,0,7.5.8.3.8,1,0,2,1.5,1.9,1.4,5.1,0,7,.8,2.3.8,4.1,0,5.5v25.5c1.3.2,1.3.6,0,1v13c1.5.2,1.5,4.1,0,4.5v4.5c.6.7,1.1,1.3,0,1.5,1.5,2.5,1.4,6.4,0,9,1.3,0,.7.8,0,1.5v3c1.3,0,.8.8,0,1.5.4,0,1,.2,1,.4.2,1.6.2,6.2,0,7.8l-1,.7c1.5,0,1.2.9,0,1.5v14c1.5.2,1.4,3.2,0,3.5v16.5c1.5-.2,1.4,2.7,0,3v5.5c.8.5,1.5,2.4,0,3,1.2,0,1.2.4,0,1.5,1.5,0,1.4,1.7,0,2,1.3.7,1.3,1.2,0,1.5v25.5c1.1,0,1.3,1.3,0,1.5,1.5,1.1,1.5,3.4,0,4.5,1.5.2,1.5,4.1,0,4.5,1.6,1,1.4,3.4,0,4.5,1.4,0,1.2,1.1,0,1.5v25l1,.6c.3,1.6.4,7.1-1,7.9v24.5c1.5,0,1.4,2.2,0,2.5v10.5c1.5-.2,1.4,2.7,0,3v8c1.3.4,1.3.6,0,1,1.5.2,1.4,2.7,0,3,1.2,1.1,1.7,3.8,0,4.5,1.3.2,1.3,6.1,1,7.3l-1,.7c1.3.2,1.3.6,0,1v5.5c1,.8,1.6,4.2,0,4.5,1,2.8,1,5.7,0,8.5,1.3,0,1.3.9,0,2.5,1,1.1,1,2.4,0,3.5,1.2.8,1.2,1.3,0,1.5,1,3.1,1,6.3,0,9.5,1.5-.1,1.4,2.6,0,3,0,6.3,0,12.7,0,19,1.4,0,1.4,1.2,0,1.5,0,3.3,0,6.7,0,10,1.5.3,1.3,1,0,1.5,1,3.7,1,7.3,0,11,1.6,1.1,1.2,1.8,0,3,0,2,0,4,0,6,1.3.2,1.3.6,0,1,1,1.6,1,3.3,0,5,.6.7.6,1,0,1,0,8.3,0,16.7,0,25,.7,1.2.8,2.4,0,3.5,1,.6,1,1.4,0,2,1,.3,1,.7,0,1,.8,1.5.8,3.1,0,5,1,1.3,1,2.7,0,4,1,.5,1,1,0,1.5.8,1.2,1,2.4,0,3.5,1,1.3,1,2.7,0,4,1,.3,1,.7,0,1,1,.5,1,1,0,1.5,1,.3,1,.7,0,1,0,4.2,0,8.3,0,12.5,1,.3,1,.7,0,1,1,1.5,1,3,0,4.5,1,.3,1,.7,0,1,0,8.3,0,16.7,0,25,.8.5.8,1.4,0,2.5,1,3,1,6,0,9,1,.3,1,.7,0,1,0,2,0,4,0,6,1,.5,1,1,0,1.5,1,2.5,1,5,0,7.5,1,.3,1,.7,0,1,0,3.5,0,7,0,10.5,1,.6,1,1.4,0,2,0,4.7,0,9.3,0,14,1,.3,1,.7,0,1,0,5.7,0,11.3,0,17,1,.8,1,1.7,0,2.5,0,5,0,10,0,15,.8,0,.8.6,0,1.5,1,.5,1,1,0,1.5.9.7,1,1.4,0,2,0,3.5,0,7,0,10.5,6,0,12,0,18,0,1.3-1,2.7-1,4,0,4.5,0,9,0,13.5,0,1.3-1,2.7-1,4,0,1.2,0,2.3,0,3.5,0,.6-1,1.4-1,2,0,3,0,6,0,9,0,.3-1,.7-1,1,0,.8-1,1.7-1,2.5,0,.3-1,.7-1,1,0,5.3,0,10.7,0,16,0,.4-1,1-.8,1.5,0,.6-1,1.4-1,2,0,.5-.9,1.1-1,1.5,0,5.2,0,10.3,0,15.5,0,.4-1,.8-.7,1.5,0,1.8-1,3.7-1,5.5,0,.2-.8.7-.8,1.5,0,1.8-1,3.7-1,5.5,0,.5-1,1-1,1.5,0,1.1-1,2.4-1,3.5,0,.7-.7,1.1-1,1.5,0,3,0,6,0,9,0,.6-1,1.4-1,2,0,2.8,0,5.7,0,8.5,0,1.5-1,3-1,4.5,0,.7,0,1.3,0,2,0,.3-1,.7-1,1,0,.5-1,1-1,1.5,0,.3-1,.7-1,1,0,.5-1,1-1,1.5,0,.3-1,.7-1,1,0,3.6-1,7.3-1,11,0,1.4-.7,2.7-.9,4,0,13.5,0,27,0,40.4,0,.3-1,.7-1,1,0,3.6-1,7.3-1,11,0,1.4-.6,2.7-.9,4,0,10.8,0,21.6,0,32.5,0,1-1,2-1,3,0,1.8,0,3.7,0,5.5,0,.4-1,.8-.7,1.5,0,.8-1,1.7-1,2.5,0,1-1,2-1,3,0,3.2,0,6.3,0,9.5,0,.5-1,1-1,1.5,0,3.5-1,7-1,10.5,0,.6-.8,1.1-1,1.5,0,2.5,0,5,0,7.5,0,2.8-1,5.7-1,8.5,0,3.7,0,7.3,0,11,0,.3-1,.7-1,1,0,4.8,0,9.7,0,14.5,0,1.3-1,2.7-1,4,0,5.2,0,10.3,0,15.5,0,1.5-1,3-1,4.5,0,2.8,0,5.7,0,8.5,0,2.2-1.2,4.3-1.2,6.5,0,2.8,0,5.7,0,8.5,0v.5H-184.1V-411.4h.5v7.5Z"/>
  <path class="st5" d="M49,175.1c-.4.4-3.5,1.3-4.3,1.5-7.5,1.7-14.8,2.9-22.1,4.9s-15.8,6.5-20.2,4.8-2.8-3.8-3.5-6c-1.9-5.9-5.2-16.5-6.1-22.4s-.6-3.8,1.1-5.1,11.3-2.5,14.4-3.1c4.7-1,9.3-2,13.9-3.1s9.9-4.8,14.3-6.2,2.1.1,4.2,1.1,2.9,0,4.1,3.4c1.9,5.7,3.4,17.8,4.3,24.2s.9,5.1,0,6.1Z"/>
  <path class="st10" d="M136.5,43.3c4.4-.3,9.4-.2,9-6.2s-3.4-4.6-1.8-5.8c2.8-2.1,5.5,3.5,5.8,5.8.3,3.4-1.3,6.1-1,9s1.5,3.1,1.9,4.6c.7,2.3,1.1,8.3.3,10.5s-11.6,5.6-12,1.3,2.4-2,2.4-3.7c-1.1.8-6.8,1.6-6.9,2.2.9,2.4.3,5.3-1.9,6.8s-8,2.1-9.5.5c-2.5-2.8,1.7-4.4,1.8-4.8.5-2.2-2.5-4.1-3.7-5.7s-1-2.5-1.8-3.2c-2-1.5-4.8-.5-7.2-3.8s-1.3-4.9-2.3-7.7-4-5.3-1.5-8,4.8.2,6.3.2,3.7-1.8,5.2-2.2c2.6-.7,5.3-.3,7.1-.7s1.9-4,5.1-3.5,2.9,3.3,3.2,4.4-.4,2.2-.4,3.3c0,1.7,2.4,4.6,2,6.8Z"/>
  <path class="st10" d="M153.4,135.2c-.5.5,5.6,11,6.3,12.5.7,1.7-.1,3-1.9,2.4s-7.3-13.9-8.1-13.9-2.1.5-2.2.8c-.6,2.2,1.3,7.3,1.5,9.9s.5,6.9-2.5,5-1.9-13.8-2.7-13.8c-1.6,1.7-5.1,1.1-6.2,1.7s-4.9,9.6-6.5,11.5-3.1,1.2-3-.9,6-10.9,5.9-11.6-2-1.5-2.6-2.4c-2.3-3.5-1.2-9.7,1.4-12.8s7.6-1,11.6-2.9,7.8-12.1,13.1-9.8,3.8,9.9,2.4,12.4-1.6,1.3-1.8,2.2c-.9,3,.6,6.5-2.8,9.2s-1.7.4-1.8.5Z"/>
  <path class="st5" d="M101.5,53.8c1.1,1.3,2.4-5.3,5.5-3.8s-1.3,9.3-1,9.8c1.1-1.4,6.5-3.3,6.3-.5s-7.8,7.7-10.3,10.2-8.6,9.9-8.4,10.9,1.7,1.5,1.9,3.1c.3,2.5-1.7,5.2-4.2,5.3s-10.9-1.3-12-2c-2.2-1.5-2.2-5.6-.6-7.4s2.2.4,1.9-2.4-3.6-6.4-4-9.6.1-10.8,2.8-11.1c5.6-.6,1.3,11.7,7.9,11.3s3-3,2.6-4.5-2.7-3.8-3.3-4.3c-1.5-1.2-5.8-1.8-5.5-4.4.3-4,9.8-.5,11.8,1.2s1.6,3,3.2,3c1.2-3.4-1.8-9.4,1.5-11.7s3.9,4.2,4,6.7Z"/>
  <path class="st12" d="M44.1-5.2c1.7,0,3.5-.1,5.2,0s1.7.9,2,.8c1.1,0,5.3-6.5,8.5-3.9S55.1,0,55.1,1.1s.5,1.5.5,2.1-.7,2.9-.4,3.2,4.3,0,4,2.7-5.8,1.1-6.5,1.5-2.7,3.5-4,4.5-4.6,2-4.7,2.3c-.9,1.3.9,7-3.5,6s-.7-4.9-1.3-5.5-2.3,0-3.1-.1c-2.9-.7-6.2-3.7-6.8-6.7s0-5-.1-5.1-5-.2-5-2.7c0-3.8,6.7-1.1,7.5-1.5s2.8-2.5,3.8-3.2,4-1.6,4.5-2.2c1.2-1.4-.1-5.8,1.4-6.3,2.5-.8,3.7,3,2.7,5Z"/>
  <path class="st10" d="M113.4,71.4c1.8-.3,5.8.5,7.5,1.3,3.1,1.5,3,4.9,8.7,6.3s6.6-1.4,11,0,4.9,2.9,5.3,5.6c.6,4.2-2.3,23.7-3.9,28s-7.7,5.1-11.8,2.2-2.2-8.3-5-11-9.3-4.4-11-4.5c-4.3,0-6.8,5.1-11.5,5.1s-9.6-3.7-8-9.1,8.4-14.3,10.4-17.1,4.6-6.2,8.3-6.7Z"/>
  <path class="st2" d="M73.6-25.2c0,3.7,1.4,5.3,4,5,3.5,2.2-.5,8.2-4.3,9s-4.7-1-5-1c-1.1.2-.7,3.3-.8,4.2,1.6.2,2.2-1.2,4.1-1.1,6.5.4,7.5,9.1,6.9,14.1s-5.7,5.5-9.2,5.2c-7.2-.6-12.6-12.2-3.7-14.8-1.1-2.4,0-5.7-.6-7.9s-2.8-3.4-3.3-6.2c-1.9-11,4.7-4,5.6-4.2,1.7-.3,4.2-5.2,6.3-2.5Z"/>
  <path class="st12" d="M53.1,80.5c0,0,1.1-2.7-.5-1.2s.1,2.2-.2,3-7.5,7.9-8,8c-4.2-2.6,4.9-6.1,6.2-8.7-2.1,0-5.4,1.8-7.3.3s0-3,.2-3.9-.3-1.3-.2-1.8c.4-2.2,3-2.6,4.8-1.8.4-.4-4.2-5.7,1.1-7.2s2.7.6,3.6.5,2.1-2.3,5.1-.9c4.7,2.2-2.4,9-1.9,9.6,1.9-1.7,6-4.8,8.5-2.7s.3,3.2.1,4.6,1.3,3.4-.3,4.7-4.8-.5-6.8-.5c0,.8,1,.6,1.5,1.2.8.9,1.7,2.2,1.4,3.4s-3.8,3.3-4.2,3.4c-1.3.2-3.3-.4-3.3-1.8,0-2.7-.1-5.4,0-8Z"/>
  <path class="st5" d="M53.5,121.3c-.9-.8-4.1,0-5.8-3.5s-2.6-8.3-2.6-9.4c-.1-3.9,2.8-5,5.8-6.1,6-2.1,16.2-3.4,21.5-6s.9-1.8,2.5-2.1c2.3-.5,6.9,1,8.1,3.2s2.9,8.7,2.9,10c0,3.9-2.4,3.8-3.2,5.3s0,2.3-1,3c-8.5,3.1-17.5,5-26.1,7.9-2.3.1-1.7-1.8-2.2-2.3Z"/>
  <path class="st5" d="M111,11.3c-.6,2.6,2.2,6.3,0,8.2-4.2,3.7-4.7-5.9-5.4-6.5s-7.4,1.6-8.7-.7-2.1-9.8-2.2-11.3-.4-7.4.4-7.9,1.5,0,2.3-.7c1.3-1.1,0-2.8.3-3.4s1.8-.5,2.2-2.1-1-2.4-.8-4c8.6-1.6,13.3-.2,17,7.7s4.7,12.2,3.9,15.9-6.3,5.3-8.9,4.9Z"/>
  <path class="st9" d="M44,37.9c5.3-.1,11.9-2,12.6,5.1s.3,16.5-.5,18.6c-1.9,4.6-13.1,1.8-17.1,2.8s-6.3,6.2-8,5.8-.8-4.4-1.6-5.5-4.4-.4-5.2-4.3.5-13.6,0-19.3c.3-.9,2.7-2.6,3.7-2.8,3.5-.6,12-.3,16.1-.4Z"/>
  <path class="st5" d="M93.6,37.4c-.8,1.3,2.4,5.7-.4,6.4s-6.6-3.5-9.4-3.5c-5,0-14.9,5.6-19.2,3.8s-2-2.1-2.4-3.1c-2.3-5.9-3-13.5-5.5-19.5,0-3.9,3-4.4,5.9-5.4,7.7-2.6,16.1-4.1,23.9-6.6,2.8-.3,4.4.9,5.3,3.4,1.5,3.7,4.7,14.9,5.2,18.8s.2,2.2-.2,3.2-3,2.3-3.1,2.6Z"/>
  <path class="st10" d="M102.9,112.3c2-.6,11.8,3.7,13.6,5.2,4.8,3.9-.9,4.9-.4,6.9s5.8,2.4,2.2,7.3-3.4,1.3-5.4,1.6-1.8,2-2.9,2.5c-3.7,1.6-12.6-2.7-13.7-6.6s4.3-9.1,5-12.1-.6-4.1,1.7-4.8Z"/>
  <path class="st15" d="M85.9,122.1c.2-.1.5-1.1,1.1-1.6,2.7-2.1,3.7.7,3.9,3s0,10.9-.5,13.9-5.2,7.3-7.5,8-3.4,0-5.1.4-1.6,1.2-2.6,1.4c-2.9.5-3.1-1.2-4-1.4s-1.8.9-2.9,1c-3.6.2-6.1-3.1-3.5-6.1,3.2-3.7,3-4.5,4.5-9s6.1-6.6,8.2-7.3,2.2,0,3.2-.3,1.3-1.5,2.2-1.8,2.4.2,3.1-.2Z"/>
  <path class="st10" d="M14.5,73.2c-.5.6-2.8.2-3.6,1.6s-1.7,6.1-1.8,7.3c-.1,3.3,5.8,2.7,3.3,6.2s-4.8-1.3-5.9-1-3.5,5.9-5.9,4.2,3-5.7,3-7-3.1-3.2-2.4-5.4,2.2-1.5,3.2-1.4c1.4.2.8,1.4,1.7,1.5l1-4.5c-2.4-.6-10.9,3.3-11.9.1s6.5-3.7,6.9-4.1-.8-3.5,2.2-3.5,2.2,2.2,3,2.4c1.7.3,7.1-2.2,7.7.5s-.4,2.8-.5,3Z"/>
  <path class="st10" d="M138.8-5c5.7-.8,12,.9,12.1,7.6s-4.9,4.5-6.7,7.8,2.2,11-3,14c-4.9,2.8-7.4-5.8-11.8-7.2s-4.8.4-6.4-2.6,2-4.2,2.4-6.4-2.2-7.9-.3-9.7,3.9.6,5.4.4,4.9-3.3,8.2-3.8Z"/>
  <path class="st15" d="M47.4,129.4c.6.7,4.5,5.3,4.6,5.7.6,2.2-1.9,2.4-1.9,2.9,0,1.1,12.8,13.6,14.2,15.7,1.3,2.7-1.2,4.1-3.3,2.3l-22.7-25.3c-1.1-3.2,1.6-2.5,3.2-3.2s1.3-1.6,1.8-1.7,3.4,3,4,3.7Z"/>
  <path class="st5" d="M17.5,109.4c17.2-1.8,24,22,8.9,29.4-22.6,11.1-32.8-26.9-8.9-29.4Z"/>
  <path class="st10" d="M98.9,149.3c6.6-1.5,6.8,5.2,8.9,9.3s1.4,1.2,1.6,1.9-.5,2.1-.4,3.3c.1,2.7,4.5,11-2.2,10.3s-5-6-6.3-6.7-1.9,0-2.5-.5c-.8-.6-.3-2.7-.6-3.9-.6-2.5-3.1-4.5-2.9-7.6s2-5.6,4.4-6.2Z"/>
  <path class="st12" d="M123.5,155.2c-.2.2-1.8-.4-2.8.5-2.2,1.9-1.8,9.3-7.9,7.4s-.6-8.3-.8-10.6-1.2-1.4-.9-2.4,1.4-1.3,1.7-2.3c.9-2.6.7-8.7,4.2-9.8,5.9-1.9,8.7,3.2,8,8.5s-1.7,3.7-1.8,5.2.7,3.3.4,3.6Z"/>
  <path class="st10" d="M4.6,36.9c16.2-.6,17.1,23.7,1.8,24.9s-18.5-24.3-1.8-24.9Z"/>
  <path class="st5" d="M28.6,16.9c1.2.8,0,5.5.3,6,.9,1.4,6.8.8,5.7,4.2s-3.6.1-5,.3c2.1,8.1-2.2,10.2-4,1.5-.5-.4-4.2,4.6-5.2,4.5-3.2-.5,1.1-5.2.6-6.6s-2.8-1.1-3.5-2c-2.8-3.7,3.9-1.8,5.7-2.4s2.7-7.1,5.3-5.4Z"/>
  <path class="st10" d="M-5.5,20.4c4.8-1.4,13.5,7.5,11.4,10.9s-17.8,5.2-20,5.4-2.6.3-3.2-.2-.6-5.8-.4-7c.3-2.2,3.6-7.4,5.8-7.7s3.2,2,3.9,1.9,1.2-3,2.6-3.4Z"/>
  <path class="st5" d="M15.1-3.7c.4.5,3.4-.6,3.5-.5l-.5,8c-1.1.4-2.5-1.1-3.2-1s-1,2.1-2.6,2.4-3.7-.4-4.8-.5c-1.9-.2-9-.9-10-1.9-1.5-1.5-.1-10.8,2.1-11.4l13.5,1.8c2.9.9,1.8,2.8,2.1,3.2Z"/>
  <path class="st10" d="M18.5,77.9c2.3-.5,3.2,0,4.6,1.7s4.7,9.4,5.2,11.2c.8,2.8-.3,4.5-3.4,3.9s-.7-4.3-5.4-2.4-.7,2.5-1.6,3.4-4.9,2.3-5.3-.3,2.4-13.6,3.1-15.3,1.6-2,2.7-2.3Z"/>
  <path class="st10" d="M113.4,101.9c1.9-.2,5.8,1.1,6.1,3.2s-.4,1.5-.3,2c.1.9,2.8,3.2.3,4.5s-4.7-3-7.2-2.2-.3,2.7,0,3.5c.7,2.3-1.5.9-2.4,0-4-4.3-2.4-10.2,3.6-10.8Z"/>
  <path class="st5" d="M4.1,12.3c.3.3,4.5-1.5,5,.3s-3.2,2.3-3.8,3.2,1.4,5.8-1.7,4.3-.7-2.8-1.8-3.2-4.3.5-4.7-.8c-.7-2.4,3.8-2.5,4-2.7.4-.5-2.1-6.7,1.7-5.4s1.1,4.3,1.3,4.5Z"/>
  <path class="st12" d="M74.5,45.8c.3,1.2-.4,4.6,0,5.4s10,3.2-.7,3.2c-1.2.3-2.1,4.3-3.1,3.9-1.5-.6.5-3.4-.5-5s-4.4-1.1-3.7-3.5c1.5-.2,3,1,4.5.3s1.4-4.3,3.5-4.3Z"/>
  <path class="st12" d="M153.9,75.8c.2,1.8-.7,3.6,1.1,4.6s2.3-.3,1.9,1.9c-1.1.1-2.6-.3-3.5.2s-.8,3-2.5,2.8c0-1.1.3-2.5-.2-3.5s-3-.8-2.8-2.5c1-.1,2.6.3,3.5-.2s.6-3.5,2.5-3.3Z"/>
  <path class="st7" d="M126.7,20.3c.9.6,1.9,1.1,2.5,2,4.8,6.1-7.6,6.4-2.5-2Z"/>
  <path class="st11" d="M143.8,70.4c2.6,3.2-2.2,7.8-5.1,3.8s2.7-6.8,5.1-3.8Z"/>
  <path class="st18" d="M68.7,72.1c-3.3-4.1,3.3-7.6,5.4-4.1s-3,7-5.4,4.1Z"/>
  <path class="st0" d="M86.9,92.8c3.6-1.1,4.5,4.2,1.3,4.8s-3.4-4.2-1.3-4.8Z"/>
  <path class="st5" d="M44.1,101.3c-1,1.4-7.8-2.3-6.3-4.5s7.2,3.2,6.3,4.5Z"/>
  <path class="st18" d="M35.6,104.2c-.2-.2,0-1.9,0-2.5,1.7.2,7-.9,7,1.8s-6.7,1-7,.7Z"/>
  <path class="st7" d="M149.8,97.9c4.9-1.5,4.8,5.6.5,4.3s-2.7-3.6-.5-4.3Z"/>
  <path class="st5" d="M35.6,109.3c0-.6-.2-2.3,0-2.5s6.5-1.6,7-.3c.7,2.3-5.6,3-7,2.7Z"/>
  <path class="st12" d="M-.5,140.3c5.4-1.6,5.7,7.7-.5,5.8s-1.7-5.1.5-5.8Z"/>
  <path class="st12" d="M117,18.3c2.6-.3,6.6,5.2,3.5,6.7-4.4,2.2-4.5-3.9-3.5-6.7Z"/>
  <path class="st5" d="M62.9,133.6c-1.2,1.2-4.4,1-4.9-1.1-1.3-6.9,8.6-2.6,4.9,1.1Z"/>
  <path class="st10" d="M33,83.3c4.5-.7,4.8,7.6-1,5.8s-1.9-5.4,1-5.8Z"/>
  <path class="st7" d="M9,102.8c4-1.2,4.4,5,.4,4.4s-2.4-3.8-.4-4.4Z"/>
  <path class="st18" d="M87.9,2.4c3.6-.7,4.3,4.9.8,5.4s-4.4-4.8-.8-5.4Z"/>
  <path class="st12" d="M19.5,58.9c3.7-1,5.2,4.8,1.8,5.8s-5.4-4.8-1.8-5.8Z"/>
  <path class="st9" d="M5.5,104.4c1.2,2-1.6,4.7-3.6,2.9s2.1-5.6,3.6-2.9Z"/>
  <path class="st5" d="M45.5,119.4c1.6,1.6.7,4.4-2.1,4.4-5.6,0-1.2-7.8,2.1-4.4Z"/>
  <path class="st5" d="M65.9,88.4c3.7-1.1,5.1,4.4,1.8,5.3s-5.1-4.4-1.8-5.3Z"/>
  <path class="st10" d="M19.5,104.1c-3.6,3.6-7.7-5.1-1.6-4.4s2.9,3.1,1.6,4.4Z"/>
  <path class="st10" d="M101.8,18.8c1.9-.4,2.4,7.9-1.9,6.4s.7-6.2,1.9-6.4Z"/>
  <path class="st10" d="M11.8,13.9c1.5-1.5,4.6-.7,4.4,2.1-.3,4.9-7.5.9-4.4-2.1Z"/>
  <path class="st7" d="M70.4,122.8c1.4-.4,3.5,1.7,1.9,3.5-2.6,3-5.6-2.5-1.9-3.5Z"/>
  <path class="st5" d="M53.4,30.9c4.3-1.5,5.4,5.7.4,4.9s-2.1-4.4-.4-4.9Z"/>
  <path class="st11" d="M132.8,72.9c3.8-1.1,3.8,4.9,0,3.8s-1.8-3.3,0-3.8Z"/>
  <path class="st9" d="M64.4,60.8c2.8-.9,4.4,2.6,2.2,3.7s-4.1-3.1-2.2-3.7Z"/>
  <path class="st11" d="M38.9,70.3c2.8-.9,4.4,2.6,2.2,3.7s-4.1-3.1-2.2-3.7Z"/>
  <path class="st9" d="M97.4,110.3c1.2,1.8-.9,5-3.2,2.9s2-4.8,3.2-2.9Z"/>
  <path class="st9" d="M-1.5,131.8c3.5-1.1,3.3,3.3,1.3,3.8s-3.6-3.1-1.3-3.8Z"/>
  <path class="st9" d="M40.9,27.9c1.8-.5,2.9,2.3,1.7,3.7-2.2,2.5-5.4-2.7-1.7-3.7Z"/>
  <path class="st11" d="M51.4,23.9c2.8-.8,3.6,3.2,1.3,3.9s-3.6-3.2-1.3-3.9Z"/>
  <path class="st7" d="M92.9,141.3c2.5-.7,3.5,5.1-.5,3.8s-1.2-3.4.5-3.8Z"/>
  <path class="st11" d="M124.1,122.1c-.9-1.6.9-4.1,2.6-2.9,3.3,2.2-1.2,5.5-2.6,2.9Z"/>
  <path class="st18" d="M29.4,77.8c4.2-1.4,3,5.5-.1,3.5s-1.5-2.9.1-3.5Z"/>
  <path class="st9" d="M89,44.9c1.1,1.8-.8,4.7-3,3.2s-.7-2.7-.4-3.2,3-.6,3.3,0Z"/>
  <path class="st11" d="M25.9,98.8c2.6-.8,3.8,3.2,1.3,3.9s-2.7-3.4-1.3-3.9Z"/>
  <path class="st15" d="M102.9,140.3c4-1.2,4.4,5,.4,4.4s-2.4-3.8-.4-4.4Z"/>
  <path class="st18" d="M23.5,72.2c-1,1.5-4.9-.3-3-2.7s4.1.9,3,2.7Z"/>
  <path class="st18" d="M16.6,32.3c-1.5,0-3.2.5-3.5-1.3-.6-3.6,4.9-3.1,3.5,1.3Z"/>
  <path class="st9" d="M80.4,44.4c2.5-.7,3.7,2.7,1.3,3.4s-3.7-2.7-1.3-3.4Z"/>
  <path class="st11" d="M.5,109.3c3.6-1,2.9,4.8-.4,3.2s-1.2-2.7.4-3.2Z"/>
  <path class="st11" d="M91.3,148.3c3.6-1.2,3.4,3.7.4,3.5s-1.7-3-.4-3.5Z"/>
  <path class="st18" d="M66,123.8c2,3.1-4.4,4.5-3.3.8s2.8-1.6,3.3-.8Z"/>
  <path class="st18" d="M45.4,32.4c3.3-1.1,3.4,2.9,1.3,3.4s-3.1-2.8-1.3-3.4Z"/>
  <path class="st18" d="M149.8,20.4c1.9-.5,3.1,2.8,1.3,3.4-3.3,1.1-3.4-2.9-1.3-3.4Z"/>
  <path class="st18" d="M90.4,110.9c1.8,1.8-.6,3.8-2.9,2.9-.9-2.3,1.1-4.6,2.9-2.9Z"/>
  <path class="st18" d="M40.5,77.3c1.2.7.3,4.3-1.9,3.2s-.2-4.6,1.9-3.2Z"/>
  <path class="st18" d="M100.8,28.9c1.9-.6,3.2.4,2.3,2.3-1.6,3.3-4.7-1.5-2.3-2.3Z"/>
  <path class="st11" d="M96.1,140.1c-1.3-1.3.2-4,1.9-3.1,2.4,1.2.1,5.2-1.9,3.1Z"/>
  <path class="st5" d="M4.1,96.3c1.4,2.1-1.9,4.4-3.2,1.9s2.5-3.1,3.2-1.9Z"/>
  <path class="st11" d="M61.9,54.4c2.9-.8,2.7,2.9.8,3.4s-3.1-2.7-.8-3.4Z"/>
  <path class="st18" d="M49.9,93.3c2.5-.8,3.6,1.7,2.2,2.7-2.4,1.7-4.4-2-2.2-2.7Z"/>
  <path class="st18" d="M70.4,80.8c2.1-.5,3,2.8.8,3.4s-3-2.8-.8-3.4Z"/>
  <path class="st11" d="M107.1,139.8c1.3-2.1,4.6,1.2,2.5,2.7s-3.4-1.3-2.5-2.7Z"/>
  <path class="st18" d="M58.9,136.8c2.1-.5,3,2.8.8,3.4s-3-2.8-.8-3.4Z"/>
  <path class="st18" d="M7.9,23c2.7-.3,3,3.1.5,3.3s-1.9-3.2-.5-3.3Z"/>
  <path class="st5" d="M97.5,120.2c-1.2,1.7-4.8-1-2.5-2.7s3.2,1.7,2.5,2.7Z"/>
  <path class="st18" d="M6.5,142.8c2.2-.6,2.1,3.1.9,3.4-2,.6-3.2-2.8-.9-3.4Z"/>
  <path class="st11" d="M22.5,9.4c2.4-.6,1.9,3.1.4,3.4s-2.5-2.8-.4-3.4Z"/>
  <path class="st5" d="M52,127.3c1.1.7.1,3.5-1.7,2.9l-.8-3c.7,0,1.9-.2,2.4,0Z"/>
  <path class="st10" d="M90.5,103.3c1,.7.1,3.4-1.7,2.9s-.2-4.3,1.7-2.9Z"/>
  <path class="st10" d="M147.3,103.8c1.2-.2,2.6,2.4.9,2.9-2.8.9-2.6-2.6-.9-2.9Z"/>
  <path class="st12" d="M37.6,116.7v-2.5c3.5-.4,3.4,2.9,0,2.5Z"/>
  <path class="st12" d="M149.5,16.3v-2.5c3.5-.4,3.4,2.9,0,2.5Z"/>
  <path class="st1" d="M18.6,149.8l7,29.4c-3.4.7-18.3,7.1-20.6,6.5s-1.6-2.1-2-3c-2.3-6.3-6-19.3-7.2-25.8s-.3-1.6,0-2.1l22.8-5Z"/>
  <path class="st1" d="M26.6,178.2c0-3.7-7.4-27.4-6.4-28.9s12.8-4.2,14.6-4.7c3.4-.8,7.9-3.1,9.1,1s3.9,19.1,4.2,24.8-.2,4.4-4.3,5.2-10.4,2.1-14.5,2.5-1.8.2-2.7,0Z"/>
  <path class="st17" d="M39.1,141.2c0,.1,0,1.1,0,1.5l-9.5,2,7-3.3c.5-.2,2.3-.4,2.5-.2Z"/>
  <path class="st1" d="M110.9,41.4c-.3-.3-1.3.3-2-1.3-1.4-3.1-.4-6.2,3.5-4.5s0,1.8,1.4,1.7,4.3-2.8,6.2-3.3,3.8-.7,4.8-.7,3,.7,3.2.5.2-4.1,3.3-4,2.4,3,2.5,4-.8,1.9-.8,2.8,2.6,4.4,2.5,7c-.4,9.3-22.8,14.5-24.4,3s.2-4.8-.1-5.1Z"/>
  <path class="st1" d="M146,59.8c.2-.3-1.4-4.6-2.3-5-1.4-.4-3.1,2.5-4.2,3.2s-4,1.5-5.1,1.3-.5-1.9-1.8-1.5c1.4,5.3,1.9,10.7-5.5,9.5-.5-3.8,3.3-1.1,2.3-5.5s-2-2.8-1.3-.2-.7,1.3-2,3,1.1,6.8-2.6,2c.5-2.1,2.8-1.2,2.3-3.8s-4.4-4.8-5.3-7.7.3-.6.7-.7c4.7-1.1,10.3-1.8,13.4-6s1.3-3.2,2.3-3.7,3.5,0,5.1-.4c5.1-.9,5.4-8.6,2.4-11.9,6.6,1.5,2.6,9.8,3,14.2s1.7,3.7,2,6,.2,7.9-.2,8.8-5.6,3.3-5.8.7,2.3-2,2.5-2.2Z"/>
  <path class="st17" d="M142.5,60.3l.5,3.5c-4,.7-4.1-3.1-.5-3.5Z"/>
  <path class="st17" d="M142,59.8c-.3-1.4-.6-3.2,1.2-3.5,1.8,1.6,1.4,3.6-1.2,3.5Z"/>
  <path class="st1" d="M143.5,135.7c-.1,4.1-7.4,2.9-9.8,1.5-4.2-2.6-2.4-12.9,2.2-14.3s6.1.4,9.2-1.3,8-10,10.6-10c3.6,0,4.9,9.4,3,11.5s-9.1,1.3-11.9,2.6-2.1,3.8-2.7,3.9c-2.7.6-8.6-.5-10.7,2.7s-.2,3.3.8,3.3h9.2Z"/>
  <path class="st1" d="M156.9,125.2c1,9.1-5.1,10.1-12.5,11,1.2-2.3.5-7.5,2.2-9s7.8-1,10.3-2Z"/>
  <path class="st1" d="M144.5,131.2c0,.6-.7,3.5-1.2,3.5h-8.5c-.2,0-.9-.8-.7-1.2,0-.4,3-2.3,3.2-2.3h7.2Z"/>
  <path class="st17" d="M146.5,137.2l1.5,14c-1.3.2-1.3-.8-1.6-1.7-.7-2.3-1.2-8.4-1.4-11.1s0-1.3,1.5-1.2Z"/>
  <path class="st17" d="M136.5,139.2c-1.8,3.5-3.6,7.7-5.9,10.8s-1,1.8-1.6,1.2,4.4-9.9,5.3-11,1.1-1.2,2.2-1Z"/>
  <path class="st1" d="M99.5,47.8c.5.4,1.7,9.9,1.5,11.3-.2,2.2-1.8,3.5-1.5,5.7,1.3.2.9-.2,1.2-1,1.5-3.3,1-6.4,2.2-8.8s3.5-6.5,4.1-2.9-3,9.7-4.1,11.9-2.3,3-1.9,3.3c1.3,1.3,3.7-4.9,4-5.3.8-1,6.2-4.8,5.9-2.1s-8.4,7.4-9.9,9.1c-3,3.1-5.9,7-8.5,10.5-3.3.8-6.7-.2-10-.5l-5-12c.2-1.2.6-8.9,1-9.2s1.7,0,2.2.5c2.2,1.9-.3,9.1,5.2,10.8,3.1,1,5.4-3.4,5-6s-3-4.5-3.2-4.8c-1.4-1.3-4.6-1.4-5.8-3.7,5.3-2.2,11.4,2.6,13.7,7.3s.6,2.2.8,3.7-.3.9,1,.7c1.1-1.9-1.4-5.5-1.3-6.2s1.2-1.4,1.3-3c.2-2.3-1.7-7.8.5-9s1.3-.4,1.5-.2Z"/>
  <path class="st1" d="M80.4,79.8c.6-.1,12,1.4,12.6,1.7,2.5,1.3,1.2,6.2-1.7,6.3s-9.6-1.2-10.7-1.8c-2.7-1.4-2.1-5.7-.2-6.1Z"/>
  <path class="st1" d="M45.5,0c2.8-.5,4.5,2.1,3.6,4.7-2.2,6.6-13.4,9.3-13,2.5S42.7.4,45.5,0Z"/>
  <path class="st1" d="M32.4,2.3c3,1.2,3.7,3.8,2.6,6.7s-3.5,2.5-4.1,2.3c-1.8-.5-.7-7.9,1.5-9Z"/>
  <path class="st1" d="M39.6,11.8c-.5,1.5.1,4.7-1.8,5s-8.2-2.9-5.4-5,3.6-.3,7.2,0Z"/>
  <path class="st1" d="M46.6,15.3l-6.5,1.5c-1-6.1,5.8-7.7,6.5-1.5Z"/>
  <path class="st1" d="M40.1-2.2c2.4,2.2-3.4,6.3-4.5,5.8-4.8-2.4,3.6-6.3,4.5-5.8Z"/>
  <path class="st1" d="M48.9,7.9c.8-.2,2.7.6,2.7,1.6s-2.9,4.5-3.7,4.3c-.4-.7-2.4-2.7-2.3-3.2s3.1-2.6,3.3-2.7Z"/>
  <path class="st1" d="M54.1,1.8c-4.3,1.4-6.3-2-5-6,2.4,1.1,4.5,3.4,5,6Z"/>
  <path class="st1" d="M54.6,2.8c-.8,3.1-1,6.9-4.8,4-.5-3.2,1.8-4.3,4.8-4Z"/>
  <path class="st1" d="M42.6,17.8c.1,1.9.1,4.8-2.5,4.5v-4.5s2.5,0,2.5,0Z"/>
  <path class="st3" d="M30.6,2.8c-.7,2.1-1.8,2.5-3.9,1.6-4.1-1.8,1.5-2.9,3.9-1.6Z"/>
  <path class="st17" d="M53.6,9.8c-.2-.2.4-2.4.5-2.5,1.5-1,8.2,3.1-.5,2.5Z"/>
  <path class="st1" d="M113.4,72.4c2-.4,5.5.5,7.2,1.5,3.2,1.9,3,4.8,8.5,6s7.8-2,12.7.7,3.2,3.8,3.1,6.8c-.2,4.6-2.6,21.9-4.4,25.6s-4,2.8-6.7,2c-7.3-2.1-3.8-7.6-7.6-11.9s-9.1-4.9-11.5-5c-7.1-.3-9,9-17.4,3-4.5-3.3,1.5-10.9,3.8-14.6s7.6-13.3,12.3-14.2Z"/>
  <path class="st1" d="M71.6,1.8c-2.3-1.8-5.9-8.6-1.2-9.5s7.7,6.6,7.2,11.2c-.8,7.5-11.5,7-14.6.6-1.3-2.8-.9-7.5,2.9-7.3s2.7,5.5,5.7,5Z"/>
  <path class="st1" d="M58,67.9c1.6,1.6-1.9,6.1-3,7.5s-1.5,2.6-2.1,2.3-4.7-5.7-5-6.5c-1.4-4.3,3.7-2.3,5-2.5s3.2-2.8,5.1-.9Z"/>
  <path class="st1" d="M60.9,74.4c1-.2,3.2-.5,3.6.7.6,1.7-1.2,2.2-1.4,3s2.3,3.4.1,4.1-6.4-1.4-7.6-2.8c-.5-1.5,3.8-4.8,5.3-5.1Z"/>
  <path class="st1" d="M51.1,79.8c-2.1.6-4,1.9-6.2,1.5s0-2.1.2-2.8-1.4-2.8.8-3.2,5,2.3,5.2,4.5Z"/>
  <path class="st1" d="M57.2,87.4c-.4.3-.4,3.1-2.5,1.8s-.5-6.1-.6-7.4c.6-.7,5.3,3.2,5.5,4.3s-1.9,1-2.4,1.3Z"/>
  <path class="st1" d="M76.4,96.4c1.1-.2,2.7-.3,3.8,0,2.5.7,6.6,13.3,2.6,14.9l-29.6,8.9c-4.7.9-7.3-10.9-6.5-13.6s1.1-1.3,1.6-1.9l28.1-8.4Z"/>
  <path class="st1" d="M54.6,122.2c-.2-1,.6-1.5,1.4-1.9,6.9-3,16.5-3.8,23.6-6.9l2,.6c.2,1.2-4.4,2.3-5.4,2.6-5.7,1.7-13.3,4.4-19,5.5s-1.7.2-2.6.1Z"/>
  <path class="st1" d="M95.6-5.6c.1-.2,2.6-.8,3.2-2.1s0-1.9.3-2.6,1.1-.6,1.4-1.1c1-1.6.5-3.1,0-4.7,4.1-1,6.9-.2,9.4,3.3s5.9,15.6,6,19.5-.7,2.5-2.1,3.1c-2.4.9-13.8,3.4-15.5,2.1s-3.5-16.1-2.6-17.5Z"/>
  <path class="st1" d="M117,7.3c-1.1-5.4-2.1-12.5-4.2-17.5s-3.5-5.2-3.2-5.5c3.9,2,5.8,7,7.2,11s4.2,11.3.3,12Z"/>
  <path class="st1" d="M110.5,18.8c-.2.2-1.6,0-2-.2-.7-.4-1.4-3.8-1.6-4.9-.4-1.7,2.5-2.1,2.9-1.4s1,6.3.7,6.5Z"/>
  <path class="st1" d="M30.6,63.3c-.2-.2-4.1.8-4.9-2.9s0-12.5-.6-17.4c.4-2.4,1.9-3.5,4.2-3.8,5-.5,18.2-.6,23,0s2.5,1.1,2.7,2.7c.5,3.9.5,13.3.3,17.4s-.3,2.1-.8,2.6c-1.9,1.7-12.1.2-15.5,1s-6.5,5.6-7.2,5.8c-2.1.5-.9-5.2-1.2-5.5Z"/>
  <path class="st1" d="M93,42.3c-.6.7-7-3.5-8.7-3.5-4.4.1-15.8,5.8-19.3,4.2s-1.5-1.7-1.9-2.6c-1.3-3.4-4.5-14.5-5-18s1.1-4.1,4.5-5.3c5.6-1.9,13-3.9,18.7-5.2s7.4-2.8,9.1,1.1c2.4,5.6,3,13.3,5.4,19.1.4,4-3.6,3.7-3.9,5s1.5,3.8.9,5.2Z"/>
  <path class="st1" d="M115.5,122.2l-1.5,3.5c4.6-1,5.6,5.7,1.5,6.8s-2.3-1.1-4-1.3c-.1,8.1-15.3,1.3-13.9-4.1l5.2-9.9c4,2.2,8,5,12.7,5Z"/>
  <path class="st17" d="M115.5,120.2l-5.8-1.9-5.2-3.1c3.7.3,8.4,2.2,11,5Z"/>
  <path class="st1" d="M78.4,125.3c3.4-.7,8.4,3.5,10.1,6.1,3.7,5.7-3.6,14.3-9.2,13.2s-8.9-8.9-9.2-10.8c-.5-3,5.9-8.1,8.3-8.6Z"/>
  <path class="st1" d="M70,135.7c-.1,2.4,6.7,7.6,7,8.8s-1.5,1.6-2.3,1.7c-3.2.3-10.1-8.8-4.7-10.5Z"/>
  <path class="st1" d="M90,130.7c-.7.5-2.5-2.4-3.3-3-1.5-1.2-3.2-2.1-4.7-3.3,3-4.8,10.6,4.3,8,6.2Z"/>
  <path class="st17" d="M70.1,145.2c-.9,0-1.8.5-2.7.5-4-.2-2.2-6.3.2-4.8s2.6,4.1,2.5,4.3Z"/>
  <path class="st17" d="M90,124.7c-1.8,0-4.3-3.4-1.7-4s1.9,3.1,1.7,4Z"/>
  <path class="st1" d="M5.1,68.3c.3.2.8,2.3,1.4,2.5,1.1.2,6.5-1.2,7.1-.5.6,3.3-2.4,1.8-3.7,4s-2.3,7.7-2.2,8.7.8,1.5,1.5,1.9c1.1.8,3.1.4,2.5,2s-3.6-1.4-5.2-1.1-3.2,5-5.3,4.9c-1.3-1.4,5.1-4.1,3.2-8s-2.9-2.6-2.2-3.5,1.6-.6,2-.3c.7.4.9,2.3,1.7,2.8,1.2,0,3.7-8.4,1-8.5s-9,2.6-10.3,1.7c-2.1-3.3,4.7-2.4,6-3.5s.2-4.4,2.4-3.2Z"/>
  <path class="st1" d="M139.9-4c3.8-.5,7.9.3,9.5,4.2,2.8,7-4.4,6.2-6.2,10s1.4,11-2.3,13.1-5.7-3.8-8.3-5.7-5.7-1.4-7.4-2.6c-3.4-2.4,1.7-5.2,2-7.5s-2.3-6.7-1.3-8.2,2.5.4,3.6.5c2.8.4,6.8-3.4,10.6-3.8Z"/>
  <path class="st6" d="M63.6,155.7c-.3.3-1.7-.2-2-.7-6.3-7.8-13.7-14.6-20.2-22.3s-3.1-3.1-1.5-4l23,24.9c.6.3,1,1.7.7,2Z"/>
  <path class="st1" d="M44.1,130.7c4.9-1.6,3.3,2.8,3.5,3s1.4,0,2.3.5c2.4,1.4.6,3.1-1.3,2.3s-4.8-6.3-7-7.5c2.4-3.1,3.7-1.6,2.5,1.7Z"/>
  <path class="st1" d="M17.5,110.4c7.1-1,15.1,4.9,16.1,12.2,2.3,17.1-21,23.3-27.4,8.5-4-9.2,1.5-19.3,11.4-20.6Z"/>
  <path class="st1" d="M122,150.2c-1.1-2.4-1.2-5.3-2.3-7.5-.9-.2-3.7,5.1-5.7,4.5.4-4,1.7-9.9,7-8.3s2.1,12.1,1,11.3Z"/>
  <path class="st3" d="M119.5,145.2c.1.1.4,2.7.8,3.5.7,1.8,2,3.5,2.2,5.5-.8.9-3.4-4.6-4.8-4.9s-3,.9-4.1,1.2-.6,1.2-1.5,0l7.5-5.2Z"/>
  <path class="st1" d="M4,37.9c3.8-.4,8.8,2.2,10.7,5.5,5.4,9.3-3.9,20.4-13.9,16.4-11.1-4.4-8.4-20.7,3.2-22Z"/>
  <path class="st1" d="M27.7,23.7c.7,1.2,4.9,1.2,5.9,2.4l-4.8.7c-1.2,1.8,1.4,5.6-.7,6.5-1.8-7.7-3-6.2-7.5-1.5-.2-1.9,2.4-4,1.9-5.6s-3.6-1.1-4.4-2.8l6-.3,3.5-5.2c.3,1.4-.4,4.9.1,5.9Z"/>
  <path class="st1" d="M4.6,30.7c-.3.5-10,3-11.4,3.3s-8.4,1.9-9.2,1.7c-2.4-.8-.2-8.5,1.5-10.4,3.6-4.2,4.6,0,6.8-.6s.4-5,6.2-2.5,7.6,6.2,6.1,8.5Z"/>
  <path class="st1" d="M17.6-2.7c.3.3-.9,4-.5,5l-3.5-1c-.3.6-.3,2.4-.8,2.5C9.9,4.7,3.3,2.3,0,2.8c-.5-.1-2.2-.9-2.3-1.3s.9-7.3,1.1-7.8c.4-1.2,3.1-.9,4.2-.8,3.3.2,7.8,1.3,11,2-.3,4.8,3.1,1.9,3.7,2.5Z"/>
  <path class="st1" d="M27.6,93.3c-4.6,1.6-2.3-1.2-4-2.2s-4.8,0-5.4.4c-1.2.9,0,5.2-4.6,4.4-.6-.6,3.1-15.4,3.7-16,1.1-1,3.1-1.3,4.3-.2s4.6,9.2,5.2,10.8.8,1.9.8,3Z"/>
  <path class="st1" d="M118.5,106.2c0,0-1.3.2-1.5.8.7.3,3.9,3.2,1.7,3.7s-4.2-4.2-7.5-2-.8,1.9-1.7,2c-3.1-4.7,2.3-9.3,7-7.2s2.4,2.2,2,2.7Z"/>
  <path class="st17" d="M2.6,9.3c1.3,1.3-1.5,5.6,5.5,3.5-.5,1.5-3.1.8-3.8,2s.6,2.8.3,4c-1.9.2-.5-2.9-2.3-3.4s-2.5.7-3.7.4c-.2-1.8,2.4-.6,3.2-2s-.7-6.1.7-4.5Z"/>
  <path class="st17" d="M72.7,53.4c-.4.3-.4,1.3-1.1,1.3.3-1.7-.6-2.3-1.5-3.5,1.7.2,2.3-1.3,3.5-2-.7,1.3,1,3.1,1,3.2,0,.5-1.5.6-1.8.9Z"/>
  <path class="st1" d="M142.9,74.2c-1.8,1.1-4.6-.8-3-2.7s4.8,1.6,3,2.7Z"/>
  <path class="st1" d="M70.4,67.9c3.9-1.1,4.3,4.5.4,3.9s-2.4-3.3-.4-3.9Z"/>
  <path class="st1" d="M0,141.3c1.8-.5,4,3,1.3,3.9s-3.2-3.4-1.3-3.9Z"/>
  <path class="st3" d="M118,19.8c1.4.3,3.9,3.9,1.7,4.5s-2.7-3-1.7-4.5Z"/>
  <path class="st1" d="M62.1,130.2c.2.2.1,2.4-.5,2.8-1.4,1-3.5-1.6-2-2.5s2.4-.4,2.5-.2Z"/>
  <path class="st1" d="M31.7,87.7c-.8-1.3.8-4.6,2.7-3s-1.6,4.8-2.7,3Z"/>
  <path class="st17" d="M89.5,3.8c.4.4.2,3.6-1.7,3s.3-4.4,1.7-3Z"/>
  <path class="st17" d="M20,59.8c2.4-.6,3.1,3.7.4,4s-2.7-3.4-.4-4Z"/>
  <path class="st1" d="M44.5,122.7c-.5.3-1.7,0-2.4,0-.7-5.7,4.8-1.5,2.4,0Z"/>
  <path class="st17" d="M66.4,89.3c1.9-.5,3,2.8.8,3.4s-3-2.8-.8-3.4Z"/>
  <path class="st1" d="M18.6,100.8c1,.7.1,3.4-1.7,2.9s-.2-4.3,1.7-2.9Z"/>
  <path class="st17" d="M102,20.8c.1,1.2.3,4.1-1.7,3.5s.3-3.8,1.7-3.5Z"/>
  <path class="st17" d="M15.1,16.8c-.2.4-2.1.8-2.4-.2-1.1-3.5,4-2.2,2.4.2Z"/>
  <path class="st17" d="M56,32.4c1.4,1.9-2.4,3.6-2.9,1.7s2.2-2.7,2.9-1.7Z"/>
  <path class="st17" d="M103.3,141.2c2.3-.6,2.3,3.1,0,2.5s-1-2.2,0-2.5Z"/>
  <path class="st7" d="M39,148.8c1.7-.3,3.1.9,2.6,2.6s-5.5,1.7-7.1,1.9-2.6,1.9-3.6-.1c-1.6-3,4.8-3.3,6.4-3.6s1.2-.7,1.8-.8Z"/>
  <path class="st10" d="M124,44.3c1.4,1.2,2.1-2.3,3-2.5,0,1,.2,2.4-.7,3s-4.2,1.3-4.7,1.4c-1.7.3-2.8-.7-2.6-2.4,1.5-.5,1,1.8,2.2,1.5,2.5-.5-2.7-3.4.5-4s2,2.8,2.2,3Z"/>
  <path class="st5" d="M125.8,36.4c4.2-1.5,5.3,4.7.9,4.5s-2.6-3.9-.9-4.5Z"/>
  <path class="st10" d="M115.1,39.4c.4-.7,3.5-.9,4.2.4,1.6,3.1-3.4,5.9-4.2,2.2s-.2-2.3,0-2.7Z"/>
  <path class="st5" d="M118.6,80.7c.2.2,2,0,2.4,1.4s-.8,2.8-1.2,3.2c-1.3,1.2-2.7,0-3.3.2s-.7,2.1-2.2,2.3c-4.4.5-2.5-4.2-2.7-4.5s-2.3,0-2.5-1.8c-.6-4.8,4.1-3.1,4.4-3.3s.8-2.4,2.3-2.4c3.6,0,2.5,4.5,2.8,4.9Z"/>
  <path class="st10" d="M127.8,93.9c5.7-1.3,6.7,6.1,2.8,7.3-6,1.8-7.3-6.3-2.8-7.3Z"/>
  <path class="st12" d="M117.9,95.6c-1.7,1.6-6,1-6.4-2.1-.9-6.9,7.6-5.7,7.5-1s-.7,2.7-1.2,3.1Z"/>
  <path class="st5" d="M125.5,82.8c1-.6,2.6.1,2.4,1.6s-1.7,4-2,4.5c-1.2,2.1-1.7,2.2-3.5.5,1.2-.8,2.4-6.3,3-6.7Z"/>
  <path class="st9" d="M134.3,89.8c2.8-.8,3.6,3.2,1.3,3.9s-3.6-3.2-1.3-3.9Z"/>
  <path class="st11" d="M132.3,84.8c2.8-.8,3.6,3.2,1.3,3.9s-3.6-3.2-1.3-3.9Z"/>
  <path class="st9" d="M139.3,87.8c1.8-.5,4,3,1.3,3.9s-3.2-3.4-1.3-3.9Z"/>
  <path class="st9" d="M137.3,82.8c1.8-.5,4,3,1.3,3.9s-3.2-3.4-1.3-3.9Z"/>
  <path class="st16" d="M78.4,98.9c.2,1,1.3.7,1.6,1.2.9,1.4,0,3.4,0,3.6.4.6,1.9.5,1.8,2.9-.2,5.2-9.5,3.3-5.9-1.9-2.5.8-2.3-4.3-1-5.2s2.7-.8,3.3-.6Z"/>
  <path class="st13" d="M62.6,109.2c0,.2,2,.9,1.6,3.1-.6,3.2-5.1,3.6-4.7,1.8.6-1,2.6-.5,3-1.6,1-3.2-2.9-1.6-4.2-2.1-5.7-2.5,1.3-9.6,4.2-4.7,1,1.7,0,3.1.2,3.6Z"/>
  <path class="st4" d="M71.4,100.9c.1,0,1.8,1.5,1.9,1.8.3,1,.2,2.9-.3,3.7s-3.3.6-3.4,1.6c-.3,3.5,4.1,1.5,4.4,1.8.1,3.7-5.8,2-5.9-1.3s3.9-3.1,3.9-3.5c.5-3.4-3.7-1.8-4-2.2-1.1-1.6,2.6-2.2,3.4-1.9Z"/>
  <path class="st13" d="M56.5,111.3c1.1.7.7,4.3-.5,5.2-4,3-7-4.3-4.7-4.2s0,4,3.4,2.9,0-2.7.3-3.9c.4,0,1.2-.1,1.4,0Z"/>
  <path class="st13" d="M56.1,110.2c0,0-1.2.2-1.5-.3-.9-1.3.6-2.6-2.1-2.1s.4,4.4-2.1,3.9-.8-7,3.2-5.7,3.3,3.5,2.5,4.2Z"/>
  <path class="st9" d="M109.5,1.3c-.6,2.1.9,5.4-2,6.3s-3.1-2-4-3.5-2.2-.9-.7-1.3,4.8-.5,6.7-1.5Z"/>
  <path class="st16" d="M30.1,44.3c.6.1,2.8-.2,3,0s-.3,4.3.8,4.5c2.8.6,1.3-4.1,1.7-4.5h3v12h-3c-.1-1.1.7-4.5-1.2-4.5s0,2.7-1,4l-3.3.5v-12Z"/>
  <path class="st8" d="M40.4,45.9c1.3-.4,2.4-.2,2.7,1.2.4,2.1,1.6,9.4-1.3,9.7s-1.8-5.7-1.8-7.3-1.2-3.1.4-3.6Z"/>
  <path class="st10" d="M71.4,18.4c3.9-.7,7.5.1,9.8,3.4,6.2,8.6-4,19.3-12.9,13.4s-4.5-15.5,3-16.8Z"/>
  <path class="st5" d="M90,30.3c-.5,2.1-1.1,6.5-4,4.7s1.3-.7,1.5-.8c.5-.4.8-4.3,2.5-4Z"/>
  <path class="st18" d="M92.5,29.8c.3.4-2,6.1-3,5s2-6.1,3-5Z"/>
  <path class="st15" d="M113.9,126.3c3.5-.9,4.8,4.4,1.8,5.3s-5-4.5-1.8-5.3Z"/>
  <path class="st18" d="M21.6,119.7l3.5-4.8c2.4-1.1,6.5,3.1,4,5.5s-2.6.8-3,1.8c2.3.2,5.6-1.7,6,1.7.6,4.9-2.2,4.7-6,3.8.8,1.6,3.2,1.3,3.5,3.3s-2.7,5-5,4-1.5-3.4-3-4.2c.4,2.6,2.8,6.3-1.3,7s-4.1-2.7-3.7-6.5c-.8.2-.8,1.5-1.5,2.2-1.9,2.3-3.6,2.3-5.5-.1s.8-3.5,2.5-5.6c-2.1.9-4.9,1.8-5.5-1.3-1-5.3,2-4.8,6-4.2l-3.9-3.3c.4-2.2,2.7-5.4,5.2-3.7l3.2,4.5c-1-4.1-2.5-8.7,3.7-7.5s1,5.3.8,7.5Z"/>
  <path class="st10" d="M6.5,42.9c1.1-.3,1.7.7,2.5.8,1.5.2,4.1-1.7,4.5,1.5s-2,3.5-3.4,3.9c-4.3,1.4-6.8-5.4-3.7-6.2Z"/>
  <path class="st10" d="M-3.8,46.4c.6-.4,2.2.2,3.1,0s.3-1.6,2.1-1.6,2.7,1.2,2.7,2.3-1.8,3.9-2,4c-1.4.9-5.6-.2-6.3-1.8s-.2-2.6.3-2.9Z"/>
  <path class="st10" d="M10.6,51.8c-.3,3.6-2.9,5.9-6.5,4.8s-4-2.7-2.3-3.4,8.2-2,8.9-1.4Z"/>
  <path class="st7" d="M19.4,82.8c1.2-.2,3.6,3.8,3,5-5.9,4.7-5.4-4.6-3-5Z"/>
  <path class="st1" d="M119,84.8c-4.3-1.8-3.3.8-4.5,1.8s-1.9-.2-2-.4c-.5-.8.5-2.6.4-3.1-.2-.9-3-.9-2.9-2.5,1-2.2,2.6-.6,3.6-.9s.5-3.3,3-2.4,0,2.5.3,3.6,3.7.4,2,3.8Z"/>
  <path class="st1" d="M127.8,94.9c4.9-1.5,5.7,6.3.4,5.4s-2.4-4.8-.4-5.4Z"/>
  <path class="st1" d="M114.4,89.8c3.3-.9,5.2,4.3,1.8,5.3s-4.6-4.6-1.8-5.3Z"/>
  <path class="st17" d="M80,104.8l.5,3-3.5.5c-.8-3,0-3.2,3-3.5Z"/>
  <path class="st17" d="M78.5,100.3l.5,3c-4.6,1.7-4.9-2.6-.5-3Z"/>
  <path class="st1" d="M61.6,108.2c-.7.1-3.1.9-3.5.5s-.6-2.4-.5-2.5,2.6-1,2.8-.9c.5,0,1.4,2.7,1.2,2.9Z"/>
  <path class="st19" d="M31.1,45.8c1.4-1.9.8,3.8,1,4,1.1-.1,3.7.4,4.3-.5s-.8-3.9,1.2-3.5v9.5c-2,.4-.4-2.8-1.2-4s-3.5-.7-4.1,0c-.8,1.2.8,4.4-1.2,4v-9.5Z"/>
  <path class="st1" d="M77,34.8c-.9-1,4-4.5,3-6.5-1.4.2-10.6,2.1-11,2.5s.1,1.7.7,2l5.8,3c-9.3,1.8-14-11.4-5.8-15.6s17.1,7,9.1,13.6-1.3,1.5-1.7,1Z"/>
  <path class="st19" d="M76,30.3c1.7,5.3-2.3,5.3-3,.5l2,1.5,1-2Z"/>
  <path class="st17" d="M114.3,127.3c2.1-.5,3,2.8.8,3.4s-3-2.8-.8-3.4Z"/>
  <path class="st1" d="M19.6,121.2c-.6.5-4.7-8-.2-8,4.5,0,.5,5.8.2,8Z"/>
  <path class="st1" d="M21.6,127.2c.3-.3,5.7,2.9,6.2,3.5,1.7,1.7-1.6,4-2.8,3.3s-3.8-6.5-3.5-6.8Z"/>
  <path class="st1" d="M16.6,127.2c-1.3,4-3,10.1-7,4.2,1.9-2,4.6-3,7-4.2Z"/>
  <path class="st1" d="M7.6,123.2c2.6-.2,5.4.2,7.5,1.8-3.2,2.1-8.6,4.6-7.5-1.8Z"/>
  <path class="st1" d="M16.6,122.2c-1.7-.8-7.4-1.9-6.3-4.5,2.3-5.1,5.7,1.9,6.3,4.5Z"/>
  <path class="st1" d="M22.1,122.2c.3-2.5,4.2-9.1,6.3-4.5s-4.5,4-6.3,4.5Z"/>
  <path class="st1" d="M21.6,136.2c-6.7,1.3-4.1-3.7-2.2-7.5.5,1.1,2.9,6.8,2.2,7.5Z"/>
  <path class="st1" d="M30.6,127.2c-.7.7-7-1.7-7-2.2,3.2-2.1,9.1-3.6,7,2.2Z"/>
  <path class="st1" d="M22.1,123.7l-2.1,2.9c-.6.2-1.7-1.3-1.4.6-1.3-.5-.2-3.2-2-3,0-.7,2.4-.7,2.9-.7.9,0,1.7.2,2.6.2Z"/>
  <path class="st1" d="M12.1,44.3c1.5,1.6-4.2,6.7-5.9,1.6s2.4-.7,3.1-.7,2.2-1.6,2.7-1Z"/>
  <path class="st1" d="M1.4,45.8c2-.4,1.1,3.4-.3,4.3-2.1,1.3-6.6-2.4-3.3-2.7s1,.5,1.8.2,1.3-1.7,1.8-1.8Z"/>
  <path class="st17" d="M9.1,52.8c.2,3.1-4.9,4-6,1.7s.6-.8,1.1-.9c1.6-.4,3.3-.6,4.9-.8Z"/>
  <path class="st0" d="M74.9,22.4c4.1-1.2,6.2,4.3,2.2,5.7s-4.8-4.9-2.2-5.7Z"/>
  <path class="st15" d="M71.6,25.8c.1,1.4,0,.8-.8,1s-3.1,1.1-3.2,1c-1.1-1.1,2.9-2.7,4-2Z"/>
</svg>